<svg width="52" height="33" viewBox="0 0 52 33" fill="none" xmlns="http://www.w3.org/2000/svg">
<g id="Amex">
<rect id="Rectangle 55" x="0.857411" y="0.859365" width="50.2816" height="31.2813" rx="2.95334" fill="#26A6D1" stroke="white" stroke-width="0.281271"/>
<path id="Vector" d="M10.7036 11.6172L6.25977 21.3725H11.5796L12.2392 19.8171H13.7467L14.4062 21.3725H20.2619V20.1854L20.7836 21.3725H23.8127L24.3344 20.1603V21.3725H36.5127L37.9935 19.8575L39.3801 21.3725L45.6351 21.385L41.1772 16.5221L45.6351 11.6172H39.4771L38.0356 13.1042L36.6927 11.6172H23.4444L22.3067 14.1351L21.1424 11.6172H15.8336V12.7639L15.243 11.6172H10.7036ZM11.733 13.0025H14.3261L17.2737 19.6176V13.0025H20.1144L22.3911 17.7455L24.4893 13.0025H27.3158V20.0025H25.5959L25.5819 14.5173L23.0745 20.0025H21.536L19.0146 14.5173V20.0025H15.4764L14.8056 18.4332H11.1817L10.5123 20.0011H8.61663L11.733 13.0025ZM28.8893 13.0025H35.8827L38.0216 15.2944L40.2295 13.0025H42.3684L39.1185 16.5207L42.3684 19.9984H40.1325L37.9935 17.6798L35.7744 19.9984H28.8893V13.0025ZM12.9944 14.1868L11.8005 16.9825H14.187L12.9944 14.1868ZM30.6163 14.4518V15.7297H34.4315V17.154H30.6163V18.549H34.8956L36.884 16.4942L34.9799 14.4506H30.6163V14.4518Z" fill="white"/>
</g>
</svg>
