<svg width="50" height="31" viewBox="0 0 50 31" fill="none" xmlns="http://www.w3.org/2000/svg">
<g id="Apple">
<rect id="Rectangle 53" x="-0.00195312" width="50.0003" height="31" rx="2.81271" fill="white"/>
<path id="XMLID_34_" d="M13.1001 9.35395C12.6605 9.85656 11.9573 10.253 11.2541 10.1963C11.1662 9.51676 11.5105 8.79471 11.9134 8.34873C12.3529 7.83197 13.122 7.46386 13.7447 7.43555C13.8179 8.14344 13.5322 8.83718 13.1001 9.35395ZM13.7373 10.3308C12.7191 10.2742 11.8475 10.8901 11.364 10.8901C10.8732 10.8901 10.1334 10.3592 9.32762 10.3733C8.28013 10.3875 7.30589 10.9609 6.77116 11.8741C5.67239 13.7004 6.48548 16.4046 7.54762 17.8912C8.0677 18.6274 8.69034 19.4344 9.51075 19.4061C10.2872 19.3778 10.5949 18.9176 11.5325 18.9176C12.4774 18.9176 12.7484 19.4061 13.5689 19.3919C14.4186 19.3778 14.9533 18.6557 15.4734 17.9195C16.0667 17.0842 16.3084 16.2701 16.3231 16.2276C16.3084 16.2135 14.6823 15.6118 14.6676 13.7995C14.653 12.2846 15.9495 11.5626 16.0081 11.5201C15.2756 10.4724 14.1329 10.3592 13.7373 10.3308ZM19.6194 8.27794V19.3141H21.3921V15.541H23.846C26.0875 15.541 27.6624 14.0544 27.6624 11.9024C27.6624 9.75037 26.1168 8.27794 23.9046 8.27794H19.6194ZM21.3921 9.72205H23.4358C24.9741 9.72205 25.8531 10.5149 25.8531 11.9095C25.8531 13.304 24.9741 14.1039 23.4285 14.1039H21.3921V9.72205ZM30.9001 19.399C32.0135 19.399 33.0463 18.8539 33.5151 17.9903H33.5518V19.3141H35.1926V13.8208C35.1926 12.228 33.8741 11.2016 31.845 11.2016C29.9624 11.2016 28.5707 12.2422 28.5194 13.6721H30.1163C30.2481 12.9925 30.9001 12.5466 31.7937 12.5466C32.8778 12.5466 33.4858 13.035 33.4858 13.934V14.5428L31.2736 14.6703C29.2153 14.7906 28.1019 15.6047 28.1019 17.0205C28.1019 18.4504 29.2519 19.399 30.9001 19.399ZM31.3762 18.0894C30.4313 18.0894 29.8306 17.6505 29.8306 16.978C29.8306 16.2843 30.4093 15.8808 31.5154 15.817L33.4858 15.6967V16.3197C33.4858 17.3532 32.5775 18.0894 31.3762 18.0894ZM37.3828 22.3155C39.1115 22.3155 39.9246 21.6784 40.6351 19.7459L43.7483 11.3077H41.9463L39.8587 17.8275H39.822L37.7344 11.3077H35.8811L38.8844 19.3424L38.7233 19.8308C38.4522 20.6591 38.0127 20.9776 37.229 20.9776C37.0898 20.9776 36.8187 20.9635 36.7089 20.9493V22.2731C36.8114 22.3014 37.2509 22.3155 37.3828 22.3155Z" fill="#222222"/>
</g>
</svg>
