<svg width="24" height="24" viewBox="0 0 24 24" fill="none" xmlns="http://www.w3.org/2000/svg">
<path d="M7.49984 22.3307C7.96007 22.3307 8.33317 21.9576 8.33317 21.4974C8.33317 21.0372 7.96007 20.6641 7.49984 20.6641C7.0396 20.6641 6.6665 21.0372 6.6665 21.4974C6.6665 21.9576 7.0396 22.3307 7.49984 22.3307Z" stroke="#222222" stroke-width="1.66667" stroke-linecap="round" stroke-linejoin="round"/>
<path d="M16.6668 22.3307C17.1271 22.3307 17.5002 21.9576 17.5002 21.4974C17.5002 21.0372 17.1271 20.6641 16.6668 20.6641C16.2066 20.6641 15.8335 21.0372 15.8335 21.4974C15.8335 21.9576 16.2066 22.3307 16.6668 22.3307Z" stroke="#222222" stroke-width="1.66667" stroke-linecap="round" stroke-linejoin="round"/>
<path d="M0.833496 4.83594H4.16683L6.40016 15.9943C6.47637 16.3779 6.68509 16.7226 6.98978 16.9679C7.29448 17.2131 7.67574 17.3434 8.06683 17.3359H16.1668C16.5579 17.3434 16.9392 17.2131 17.2439 16.9679C17.5486 16.7226 17.7573 16.3779 17.8335 15.9943L19.1668 9.0026H5.00016" stroke="#222222" stroke-width="1.66667" stroke-linecap="round" stroke-linejoin="round"/>
</svg>
