<svg width="20" height="21" viewBox="0 0 20 21" fill="none" xmlns="http://www.w3.org/2000/svg">
<g clip-path="url(#clip0_58_3136)">
<path d="M15.5441 19.9882L9.99997 16.5189L4.45587 19.9882C4.25446 20.1158 3.99466 20.1061 3.80071 19.9653C3.70616 19.8968 3.6343 19.8015 3.59442 19.6918C3.55454 19.582 3.54846 19.4628 3.57696 19.3496L5.1631 13.0044L0.209502 8.80447C0.119993 8.72945 0.0549525 8.62939 0.0227326 8.51713C-0.00948728 8.40487 -0.00741549 8.28554 0.028682 8.17447C0.0647365 8.0633 0.133193 7.96545 0.225263 7.89346C0.317334 7.82148 0.428817 7.77866 0.545401 7.77049L7.01079 7.319L9.45638 1.25307C9.63606 0.810176 10.3639 0.810176 10.5436 1.25307L12.9892 7.319L19.4545 7.77049C19.5711 7.77866 19.6826 7.82148 19.7747 7.89346C19.8667 7.96545 19.9352 8.0633 19.9713 8.17447C20.0074 8.28554 20.0094 8.40487 19.9772 8.51713C19.945 8.62939 19.8799 8.72945 19.7904 8.80447L14.8368 13.0045L16.4229 19.3497C16.4515 19.4629 16.4454 19.5821 16.4055 19.6918C16.3656 19.8016 16.2938 19.8969 16.1992 19.9654C16.1047 20.0341 15.9919 20.0731 15.8751 20.0771C15.7584 20.0812 15.6431 20.0502 15.5441 19.9882Z" fill="#222222"/>
</g>
<defs>
<clipPath id="clip0_58_3136">
<rect width="20" height="20" fill="white" transform="translate(0 0.5)"/>
</clipPath>
</defs>
</svg>
