<svg width="50" height="31" viewBox="0 0 50 31" fill="none" xmlns="http://www.w3.org/2000/svg">
<g id="Gpay">
<rect id="Rectangle 53" x="-0.00195312" width="50.0003" height="31" rx="2.81271" fill="white"/>
<g id="Group">
<path id="Vector" d="M24.4973 15.3704V20.1257H22.9512V8.36523H26.9723C27.9512 8.36523 28.8785 8.72249 29.6012 9.38744C30.323 10.0004 30.684 10.9211 30.684 11.893C30.684 12.8648 30.3239 13.7336 29.6012 14.3985C28.8793 15.0635 28.0035 15.4207 26.9723 15.4207L24.4973 15.3704ZM24.4973 9.79664V13.8878H27.0754C27.6426 13.8878 28.2098 13.6824 28.5707 13.2748C29.3957 12.5084 29.3957 11.2296 28.6215 10.4624L28.5707 10.4104C28.1582 10.0012 27.6426 9.74548 27.0754 9.79743H24.4973V9.79664Z" fill="#5F6368"/>
<path id="Vector_2" d="M34.2359 11.8418C35.3703 11.8418 36.2461 12.1479 36.9164 12.7625C37.5867 13.3755 37.8953 14.1939 37.8953 15.2169V20.1265H36.4523V19.0012H36.4016C35.7836 19.9219 34.9062 20.3822 33.8758 20.3822C33 20.3822 32.2258 20.1265 31.6078 19.6158C31.0406 19.1043 30.6797 18.3882 30.6797 17.6217C30.6797 16.8033 30.9891 16.14 31.6078 15.6277C32.2258 15.1162 33.1015 14.9116 34.1336 14.9116C35.0617 14.9116 35.7836 15.065 36.35 15.4231V15.0658C36.35 14.5543 36.1445 14.0436 35.732 13.7359C35.3195 13.3787 34.8039 13.1733 34.2367 13.1733C33.361 13.1733 32.6906 13.5305 32.2266 14.2474L30.8859 13.429C31.7101 12.3525 32.793 11.8418 34.2359 11.8418ZM32.2773 17.6705C32.2773 18.0797 32.4828 18.4369 32.793 18.6415C33.1531 18.8973 33.5656 19.0507 33.9781 19.0507C34.596 19.0507 35.2156 18.795 35.6789 18.3354C36.1945 17.8743 36.4515 17.3132 36.4515 16.6986C35.9882 16.3414 35.3171 16.136 34.4414 16.136C33.8234 16.136 33.307 16.2894 32.8953 16.5955C32.4828 16.8521 32.2773 17.2101 32.2773 17.6705Z" fill="#5F6368"/>
<path id="Vector_3" d="M46.2472 12.0938L41.1449 23.7H39.5973L41.5051 19.6608L38.1543 12.1441H39.8043L42.2262 17.9217H42.2777L44.6488 12.1441H46.2472V12.0938Z" fill="#5F6368"/>
<path id="Vector_4" d="M18.3605 14.3459C18.3605 13.8847 18.3081 13.4252 18.2574 12.9648H11.8145V15.5727H15.4738C15.3191 16.3911 14.8559 17.1575 14.1332 17.6179V19.305H16.3496C17.6378 18.1294 18.3605 16.3903 18.3605 14.3459Z" fill="#4285F4"/>
<path id="Vector_5" d="M11.8164 20.9441C13.6718 20.9441 15.2179 20.3311 16.3531 19.3073L14.1367 17.6202C13.5188 18.0294 12.7445 18.2851 11.818 18.2851C10.0648 18.2851 8.51877 17.1095 8.00395 15.4727H5.73438V17.2118C6.91951 19.5127 9.23984 20.9441 11.8164 20.9441Z" fill="#34A853"/>
<path id="Vector_6" d="M8.00078 15.4719C7.6914 14.6535 7.6914 13.7328 8.00078 12.8641V11.125H5.73282C4.75312 13.0175 4.75312 15.2673 5.73282 17.2102L8.00078 15.4719Z" fill="#FBBC04"/>
<path id="Vector_7" d="M11.8136 10.1019C12.7933 10.1019 13.7215 10.4592 14.4425 11.1241L16.4019 9.18122C15.1644 8.05672 13.5152 7.39177 11.8652 7.44212C9.28706 7.44212 6.91759 8.87352 5.7832 11.1753L8.05116 12.9128C8.51523 11.2784 10.0613 10.1019 11.8136 10.1019Z" fill="#EA4335"/>
</g>
</g>
</svg>
