<svg width="52" height="33" viewBox="0 0 52 33" fill="none" xmlns="http://www.w3.org/2000/svg">
<g id="Gpay">
<rect id="Rectangle 53" x="0.857411" y="0.859365" width="50.2816" height="31.2813" rx="2.95334" fill="#5A31F4" stroke="white" stroke-width="0.281271"/>
<g id="Group 51">
<g id="Group">
<path id="Vector" d="M20.9127 20.6502V9.81836H25.0083C25.8482 9.81836 26.5523 9.97332 27.1229 10.2833C27.6934 10.5932 28.1258 11.0199 28.4179 11.5612C28.7099 12.1024 28.8571 12.7178 28.8571 13.405C28.8571 14.0922 28.7099 14.7166 28.4156 15.2556C28.1213 15.7946 27.6843 16.2191 27.1093 16.5268C26.5342 16.8344 25.8233 16.9894 24.9811 16.9894H22.2666V15.3769H24.714C25.2053 15.3769 25.606 15.2915 25.9184 15.1231C26.2309 14.9547 26.464 14.7211 26.6135 14.4246C26.7652 14.1282 26.8399 13.7891 26.8399 13.4028C26.8399 13.0165 26.7652 12.6796 26.6135 12.3876C26.4618 12.0957 26.2286 11.8666 25.9139 11.7026C25.5992 11.5387 25.1939 11.4578 24.7004 11.4578H22.8869V20.6524H20.9082L20.9127 20.6502Z" fill="white"/>
<path id="Vector_2" d="M32.7023 20.8124C32.1839 20.8124 31.7175 20.7204 31.3032 20.5339C30.8889 20.3498 30.5628 20.0758 30.3229 19.712C30.0829 19.3481 29.9629 18.9012 29.9629 18.3689C29.9629 17.9108 30.0489 17.5312 30.2187 17.2325C30.3885 16.9338 30.6217 16.6935 30.9183 16.5138C31.2126 16.3342 31.5454 16.1972 31.919 16.1029C32.2903 16.0085 32.6752 15.9411 33.0736 15.8985C33.5536 15.8491 33.943 15.8042 34.2418 15.7637C34.5407 15.7233 34.758 15.6604 34.8961 15.5728C35.0342 15.4852 35.1022 15.3505 35.1022 15.1686V15.1371C35.1022 14.7396 34.9822 14.4297 34.7444 14.2118C34.5067 13.994 34.1626 13.8839 33.7143 13.8839C33.2412 13.8839 32.8676 13.9872 32.5914 14.1916C32.3152 14.396 32.1295 14.6385 32.0344 14.917L30.2323 14.6632C30.3749 14.1692 30.6081 13.7559 30.9364 13.4235C31.2624 13.0911 31.6631 12.8396 32.1363 12.6734C32.6095 12.505 33.1325 12.4219 33.703 12.4219C34.0969 12.4219 34.4909 12.4668 34.8825 12.5589C35.2742 12.651 35.6319 12.8014 35.9534 13.0103C36.2772 13.2192 36.5375 13.5044 36.7345 13.8637C36.9315 14.2231 37.0311 14.6722 37.0311 15.2135V20.6507H35.1746V19.5345H35.1112C34.9935 19.7591 34.8305 19.9702 34.6177 20.1656C34.4071 20.361 34.1422 20.5182 33.823 20.6373C33.5038 20.7563 33.1325 20.8147 32.7069 20.8147L32.7023 20.8124ZM33.2027 19.4065C33.5898 19.4065 33.9271 19.3302 34.2101 19.1774C34.4954 19.0247 34.715 18.8203 34.869 18.5666C35.0229 18.3128 35.0999 18.0365 35.0999 17.7356V16.7789C35.0388 16.8283 34.9369 16.8732 34.7943 16.9159C34.6516 16.9585 34.4886 16.9945 34.312 17.0281C34.1332 17.0596 33.9588 17.0888 33.7845 17.1135C33.6102 17.1382 33.4585 17.1607 33.3317 17.1764C33.0442 17.2146 32.7861 17.2797 32.5574 17.3673C32.3288 17.4549 32.1499 17.5784 32.0186 17.7356C31.8873 17.8928 31.8216 18.0949 31.8216 18.342C31.8216 18.6946 31.9507 18.9618 32.211 19.1415C32.4714 19.3212 32.8019 19.411 33.2027 19.411V19.4065Z" fill="white"/>
<path id="Vector_3" d="M39.8748 23.7038C39.6121 23.7038 39.3699 23.6836 39.148 23.6432C38.9261 23.6028 38.7496 23.5556 38.6182 23.504L39.0665 22.0127C39.3473 22.0936 39.5986 22.1317 39.8182 22.1295C40.0378 22.125 40.2325 22.0576 40.4023 21.9251C40.5721 21.7926 40.7147 21.5725 40.8324 21.2671L40.9977 20.8291L38.0273 12.5352H40.074L41.9622 18.6709H42.0482L43.9409 12.5352H45.9943L42.7138 21.6444C42.5599 22.0756 42.3584 22.4439 42.1048 22.7516C41.8512 23.0593 41.5433 23.2973 41.1788 23.4613C40.8143 23.6252 40.3796 23.7061 39.8748 23.7061V23.7038Z" fill="white"/>
</g>
<path id="Vector_4" d="M12.0503 21.2319C8.98261 21.2319 6.75484 19.1882 6.75484 16.3741C6.75484 15.359 7.06727 13.8655 8.55472 12.5179L8.58415 12.491L10.1576 14.1058C10.1395 14.1237 10.1146 14.1462 10.0829 14.1754C9.37655 14.8155 9.01884 15.5544 9.01884 16.3741C9.01884 17.9372 10.2369 18.986 12.0503 18.986C14.4026 18.986 15.924 17.3578 15.924 14.8357C15.924 12.8234 14.3256 10.6853 11.3643 10.6853C9.17052 10.6853 7.6627 12.2282 7.64912 12.244L5.99414 10.7078C6.08017 10.6157 8.16078 8.43945 11.3621 8.43945C15.6342 8.43945 18.1857 11.6915 18.1857 14.8357C18.1857 18.602 15.6614 21.2319 12.0481 21.2319H12.0503Z" fill="white"/>
</g>
</g>
</svg>
