<svg width="20" height="21" viewBox="0 0 20 21" fill="none" xmlns="http://www.w3.org/2000/svg">
<g clip-path="url(#clip0_58_3137)">
<path d="M9.99997 16.5196L4.45587 19.9889C4.25446 20.1165 3.99466 20.1068 3.80071 19.966C3.70616 19.8975 3.6343 19.8022 3.59442 19.6924C3.55454 19.5827 3.54846 19.4635 3.57696 19.3503L5.16309 13.0051L0.209502 8.80517C0.119993 8.73015 0.0549525 8.63008 0.0227326 8.51782C-0.00948728 8.40557 -0.00741549 8.28624 0.028682 8.17517C0.0647365 8.064 0.133193 7.96614 0.225263 7.89416C0.317334 7.82217 0.428817 7.77935 0.545401 7.77118L7.01079 7.3197L9.45638 1.25376C9.54622 1.03231 9.77312 0.921865 10 0.921875L9.99997 16.5196Z" fill="#222222"/>
<path d="M10 16.5196L15.5441 19.9889C15.7455 20.1165 16.0053 20.1068 16.1993 19.966C16.2938 19.8975 16.3657 19.8022 16.4056 19.6924C16.4455 19.5827 16.4515 19.4635 16.423 19.3503L14.8369 13.0051L19.7905 8.80517C19.88 8.73015 19.945 8.63008 19.9773 8.51782C20.0095 8.40557 20.0074 8.28624 19.9713 8.17517C19.9353 8.064 19.8668 7.96614 19.7747 7.89416C19.6827 7.82217 19.5712 7.77935 19.4546 7.77118L12.9892 7.3197L10.5436 1.25376C10.4538 1.03231 10.2269 0.921865 10 0.921875L10 16.5196Z" fill="#E6E6E7"/>
</g>
<defs>
<clipPath id="clip0_58_3137">
<rect width="20" height="20" fill="white" transform="translate(0 0.5)"/>
</clipPath>
</defs>
</svg>
