<svg width="77" height="21" viewBox="0 0 77 21" fill="none" xmlns="http://www.w3.org/2000/svg">
<path d="M76.9998 10.8841C76.9998 13.0765 76.5735 14.926 75.7209 16.4325C74.8682 17.9326 73.7175 19.0705 72.2687 19.8462C70.8199 20.6155 69.2044 21.0001 67.4223 21.0001C65.6273 21.0001 64.0054 20.6123 62.5566 19.8366C61.1142 19.0545 59.9667 17.9134 59.114 16.4133C58.2678 14.9068 57.8447 13.0637 57.8447 10.8841C57.8447 8.69164 58.2678 6.84537 59.114 5.34528C59.9667 3.83877 61.1142 2.70088 62.5566 1.9316C64.0054 1.15591 65.6273 0.768066 67.4223 0.768066C69.2044 0.768066 70.8199 1.15591 72.2687 1.9316C73.7175 2.70088 74.8682 3.83877 75.7209 5.34528C76.5735 6.84537 76.9998 8.69164 76.9998 10.8841ZM71.4994 10.8841C71.4994 9.70453 71.3424 8.71087 71.0282 7.90313C70.7205 7.08898 70.2622 6.47355 69.6532 6.05686C69.0506 5.63376 68.3069 5.42221 67.4223 5.42221C66.5376 5.42221 65.7907 5.63376 65.1817 6.05686C64.5791 6.47355 64.1208 7.08898 63.8066 7.90313C63.4989 8.71087 63.3451 9.70453 63.3451 10.8841C63.3451 12.0637 63.4989 13.0605 63.8066 13.8747C64.1208 14.6824 64.5791 15.2978 65.1817 15.7209C65.7907 16.1376 66.5376 16.346 67.4223 16.346C68.3069 16.346 69.0506 16.1376 69.6532 15.7209C70.2622 15.2978 70.7205 14.6824 71.0282 13.8747C71.3424 13.0605 71.4994 12.0637 71.4994 10.8841Z" fill="white"/>
<path d="M49.7939 7.53772C49.7106 7.19796 49.5792 6.89986 49.3997 6.64344C49.2202 6.3806 48.9958 6.15943 48.7266 5.97993C48.4637 5.79402 48.156 5.6562 47.8034 5.56645C47.4572 5.47029 47.0758 5.42221 46.6591 5.42221C45.7616 5.42221 44.9956 5.63696 44.3609 6.06648C43.7327 6.49599 43.2518 7.11462 42.9185 7.92236C42.5916 8.73011 42.4281 9.70453 42.4281 10.8456C42.4281 11.9995 42.5851 12.9868 42.8993 13.8074C43.2134 14.6279 43.6814 15.2562 44.3032 15.6921C44.925 16.128 45.6975 16.346 46.6207 16.346C47.4348 16.346 48.1111 16.2274 48.6496 15.9902C49.1945 15.753 49.6016 15.4164 49.8709 14.9805C50.1401 14.5446 50.2747 14.0317 50.2747 13.4419L51.1979 13.5381H46.6976V9.73017H55.4289V12.4611C55.4289 14.2561 55.0475 15.7914 54.2846 17.0672C53.5281 18.3365 52.4832 19.3109 51.1498 19.9904C49.8228 20.6636 48.3002 21.0001 46.5822 21.0001C44.6654 21.0001 42.9826 20.593 41.5338 19.7789C40.085 18.9647 38.9535 17.8044 38.1393 16.2979C37.3316 14.7914 36.9277 12.9996 36.9277 10.9226C36.9277 9.29425 37.1745 7.85185 37.6682 6.59536C38.1682 5.33887 38.8605 4.2779 39.7452 3.41246C40.6299 2.54061 41.6524 1.88352 42.8127 1.44119C43.973 0.992439 45.2167 0.768066 46.5437 0.768066C47.7105 0.768066 48.7939 0.934744 49.7939 1.2681C50.8004 1.59504 51.6883 2.06302 52.4576 2.67203C53.2332 3.27463 53.8583 3.98942 54.3327 4.8164C54.8071 5.64337 55.0955 6.55048 55.1981 7.53772H49.7939Z" fill="white"/>
<path d="M34.531 10.8841C34.531 13.0765 34.1047 14.926 33.2521 16.4325C32.3995 17.9326 31.2488 19.0705 29.8 19.8462C28.3512 20.6155 26.7357 21.0001 24.9535 21.0001C23.1585 21.0001 21.5366 20.6123 20.0878 19.8366C18.6454 19.0545 17.4979 17.9134 16.6453 16.4133C15.7991 14.9068 15.376 13.0637 15.376 10.8841C15.376 8.69164 15.7991 6.84537 16.6453 5.34528C17.4979 3.83877 18.6454 2.70088 20.0878 1.9316C21.5366 1.15591 23.1585 0.768066 24.9535 0.768066C26.7357 0.768066 28.3512 1.15591 29.8 1.9316C31.2488 2.70088 32.3995 3.83877 33.2521 5.34528C34.1047 6.84537 34.531 8.69164 34.531 10.8841ZM29.0307 10.8841C29.0307 9.70453 28.8736 8.71087 28.5595 7.90313C28.2518 7.08898 27.7934 6.47355 27.1844 6.05686C26.5818 5.63376 25.8382 5.42221 24.9535 5.42221C24.0688 5.42221 23.322 5.63376 22.713 6.05686C22.1104 6.47355 21.652 7.08898 21.3379 7.90313C21.0302 8.71087 20.8763 9.70453 20.8763 10.8841C20.8763 12.0637 21.0302 13.0605 21.3379 13.8747C21.652 14.6824 22.1104 15.2978 22.713 15.7209C23.322 16.1376 24.0688 16.346 24.9535 16.346C25.8382 16.346 26.5818 16.1376 27.1844 15.7209C27.7934 15.2978 28.2518 14.6824 28.5595 13.8747C28.8736 13.0605 29.0307 12.0637 29.0307 10.8841Z" fill="white"/>
<path d="M0.750977 20.7272V1.03369H6.09747V16.4193H14.0595V20.7272H0.750977Z" fill="white"/>
</svg>
