<svg width="56" height="16" viewBox="0 0 56 16" fill="none" xmlns="http://www.w3.org/2000/svg">
<path d="M55.7519 7.99992C55.7519 9.603 55.4402 10.9553 54.8168 12.0568C54.1934 13.1537 53.352 13.9857 52.2927 14.5528C51.2333 15.1153 50.0521 15.3966 48.749 15.3966C47.4365 15.3966 46.2506 15.113 45.1913 14.5458C44.1366 13.974 43.2976 13.1396 42.6742 12.0428C42.0555 10.9412 41.7461 9.59363 41.7461 7.99992C41.7461 6.39685 42.0555 5.04689 42.6742 3.95005C43.2976 2.84852 44.1366 2.01651 45.1913 1.45403C46.2506 0.886857 47.4365 0.603271 48.749 0.603271C50.0521 0.603271 51.2333 0.886857 52.2927 1.45403C53.352 2.01651 54.1934 2.84852 54.8168 3.95005C55.4402 5.04689 55.7519 6.39685 55.7519 7.99992ZM51.7302 7.99992C51.7302 7.13745 51.6153 6.41091 51.3856 5.8203C51.1607 5.22501 50.8255 4.77502 50.3802 4.47034C49.9396 4.16098 49.3959 4.00629 48.749 4.00629C48.1022 4.00629 47.5561 4.16098 47.1108 4.47034C46.6702 4.77502 46.335 5.22501 46.1053 5.8203C45.8803 6.41091 45.7678 7.13745 45.7678 7.99992C45.7678 8.8624 45.8803 9.59128 46.1053 10.1866C46.335 10.7772 46.6702 11.2272 47.1108 11.5365C47.5561 11.8412 48.1022 11.9936 48.749 11.9936C49.3959 11.9936 49.9396 11.8412 50.3802 11.5365C50.8255 11.2272 51.1607 10.7772 51.3856 10.1866C51.6153 9.59128 51.7302 8.8624 51.7302 7.99992Z" fill="#222222"/>
<path d="M35.8592 5.55312C35.7983 5.30469 35.7022 5.08673 35.5709 4.89924C35.4397 4.70705 35.2756 4.54534 35.0787 4.41409C34.8866 4.27816 34.6616 4.17738 34.4038 4.11176C34.1506 4.04145 33.8717 4.00629 33.5671 4.00629C32.9108 4.00629 32.3507 4.16332 31.8867 4.47737C31.4273 4.79143 31.0757 5.24376 30.832 5.83436C30.5929 6.42497 30.4734 7.13745 30.4734 7.9718C30.4734 8.81552 30.5883 9.53738 30.8179 10.1374C31.0476 10.7373 31.3898 11.1967 31.8445 11.5154C32.2991 11.8342 32.864 11.9936 33.5389 11.9936C34.1342 11.9936 34.6288 11.9068 35.0225 11.7334C35.4209 11.56 35.7186 11.3139 35.9154 10.9951C36.1123 10.6764 36.2107 10.3014 36.2107 9.87018L36.8857 9.94049H33.5952V7.1562H39.9794V9.15301C39.9794 10.4655 39.7005 11.5881 39.1427 12.5209C38.5896 13.449 37.8255 14.1615 36.8506 14.6583C35.8803 15.1505 34.767 15.3966 33.5108 15.3966C32.1093 15.3966 30.8789 15.0989 29.8195 14.5036C28.7602 13.9083 27.9329 13.0599 27.3376 11.9584C26.747 10.8569 26.4517 9.54675 26.4517 8.02805C26.4517 6.83746 26.6321 5.7828 26.993 4.86408C27.3587 3.94536 27.8649 3.1696 28.5118 2.53681C29.1586 1.89933 29.9062 1.41887 30.7547 1.09544C31.6031 0.767329 32.5124 0.603271 33.4827 0.603271C34.3358 0.603271 35.128 0.725143 35.8592 0.968886C36.5951 1.20794 37.2443 1.55012 37.8068 1.99542C38.374 2.43603 38.831 2.95867 39.1778 3.56334C39.5247 4.16801 39.7356 4.83127 39.8106 5.55312H35.8592Z" fill="#222222"/>
<path d="M24.6997 7.99992C24.6997 9.603 24.388 10.9553 23.7645 12.0568C23.1411 13.1537 22.2997 13.9857 21.2404 14.5528C20.1811 15.1153 18.9998 15.3966 17.6968 15.3966C16.3843 15.3966 15.1984 15.113 14.1391 14.5458C13.0844 13.974 12.2454 13.1396 11.6219 12.0428C11.0032 10.9412 10.6938 9.59363 10.6938 7.99992C10.6938 6.39685 11.0032 5.04689 11.6219 3.95005C12.2454 2.84852 13.0844 2.01651 14.1391 1.45403C15.1984 0.886857 16.3843 0.603271 17.6968 0.603271C18.9998 0.603271 20.1811 0.886857 21.2404 1.45403C22.2997 2.01651 23.1411 2.84852 23.7645 3.95005C24.388 5.04689 24.6997 6.39685 24.6997 7.99992ZM20.6779 7.99992C20.6779 7.13745 20.5631 6.41091 20.3334 5.8203C20.1084 5.22501 19.7733 4.77502 19.328 4.47034C18.8873 4.16098 18.3436 4.00629 17.6968 4.00629C17.0499 4.00629 16.5038 4.16098 16.0585 4.47034C15.6179 4.77502 15.2828 5.22501 15.0531 5.8203C14.8281 6.41091 14.7156 7.13745 14.7156 7.99992C14.7156 8.8624 14.8281 9.59128 15.0531 10.1866C15.2828 10.7772 15.6179 11.2272 16.0585 11.5365C16.5038 11.8412 17.0499 11.9936 17.6968 11.9936C18.3436 11.9936 18.8873 11.8412 19.328 11.5365C19.7733 11.2272 20.1084 10.7772 20.3334 10.1866C20.5631 9.59128 20.6779 8.8624 20.6779 7.99992Z" fill="#222222"/>
<path d="M0 15.1984V0.798828H3.90926V12.0485H9.73096V15.1984H0Z" fill="#222222"/>
</svg>
