<svg width="50" height="31" viewBox="0 0 50 31" fill="none" xmlns="http://www.w3.org/2000/svg">
<g id="MC">
<rect id="Rectangle 54" x="-0.00195312" width="50.0003" height="31" rx="2.81271" fill="white"/>
<g id="MC_2">
<path id="XMLID_1775_" d="M15.0053 27.3139V25.738C15.0053 25.1352 14.6351 24.7405 13.9997 24.7405C13.6819 24.7405 13.3365 24.8445 13.0989 25.1872C12.9139 24.8996 12.6486 24.7405 12.2506 24.7405C11.9854 24.7405 11.7201 24.82 11.5103 25.1077V24.7925H10.9551V27.3139H11.5103V25.9216C11.5103 25.4749 11.7478 25.2637 12.118 25.2637C12.4882 25.2637 12.6732 25.4993 12.6732 25.9216V27.3139H13.2285V25.9216C13.2285 25.4749 13.4938 25.2637 13.8362 25.2637C14.2063 25.2637 14.3914 25.4993 14.3914 25.9216V27.3139H15.0053ZM23.2414 24.7925H22.3406V24.0305H21.7854V24.7925H21.2826V25.2913H21.7854V26.4479C21.7854 27.0263 22.0229 27.3659 22.6584 27.3659C22.8959 27.3659 23.1612 27.2864 23.3462 27.1823L23.1858 26.708C23.0254 26.8121 22.8404 26.8396 22.7077 26.8396C22.4424 26.8396 22.3376 26.6805 22.3376 26.4204V25.2913H23.2383V24.7925H23.2414ZM27.9548 24.7374C27.637 24.7374 27.4242 24.8965 27.2916 25.1046V24.7894H26.7363V27.3108H27.2916V25.891C27.2916 25.4718 27.4766 25.2331 27.8221 25.2331C27.927 25.2331 28.0596 25.2607 28.1676 25.2851L28.328 24.7588C28.217 24.7374 28.0596 24.7374 27.9548 24.7374ZM20.8322 25.0006C20.5669 24.817 20.1968 24.7374 19.7989 24.7374C19.1634 24.7374 18.7408 25.0526 18.7408 25.5514C18.7408 25.9706 19.0585 26.2092 19.6138 26.2857L19.8791 26.3133C20.169 26.3653 20.3294 26.4449 20.3294 26.5764C20.3294 26.76 20.1166 26.8916 19.7464 26.8916C19.3763 26.8916 19.0832 26.76 18.8981 26.6285L18.6329 27.0477C18.9228 27.2588 19.3207 27.3629 19.7187 27.3629C20.459 27.3629 20.8847 27.0201 20.8847 26.5489C20.8847 26.1021 20.5392 25.8665 20.0117 25.787L19.7464 25.7594C19.5089 25.7319 19.3238 25.6799 19.3238 25.5238C19.3238 25.3402 19.5089 25.2362 19.8019 25.2362C20.1197 25.2362 20.4374 25.3678 20.5978 25.4473L20.8322 25.0006ZM35.6048 24.7374C35.287 24.7374 35.0742 24.8965 34.9416 25.1046V24.7894H34.3863V27.3108H34.9416V25.891C34.9416 25.4718 35.1266 25.2331 35.4721 25.2331C35.577 25.2331 35.7096 25.2607 35.8176 25.2851L35.978 24.7649C35.8701 24.7374 35.7127 24.7374 35.6048 24.7374ZM28.51 26.0532C28.51 26.8151 29.0406 27.3659 29.8611 27.3659C30.2313 27.3659 30.4965 27.2864 30.7618 27.0783L30.4965 26.6315C30.2837 26.7906 30.0739 26.8671 29.8333 26.8671C29.383 26.8671 29.0652 26.552 29.0652 26.0532C29.0652 25.5789 29.383 25.2637 29.8333 25.2392C30.0709 25.2392 30.2837 25.3188 30.4965 25.4749L30.7618 25.0281C30.4965 24.817 30.2313 24.7405 29.8611 24.7405C29.0406 24.7374 28.51 25.2913 28.51 26.0532ZM33.646 26.0532V24.7925H33.0908V25.1077C32.9057 24.872 32.6404 24.7405 32.2949 24.7405C31.5793 24.7405 31.024 25.2913 31.024 26.0532C31.024 26.8151 31.5793 27.3659 32.2949 27.3659C32.6651 27.3659 32.9304 27.2343 33.0908 26.9987V27.3139H33.646V26.0532ZM31.607 26.0532C31.607 25.6064 31.897 25.2392 32.3751 25.2392C32.8255 25.2392 33.1432 25.582 33.1432 26.0532C33.1432 26.4999 32.8255 26.8671 32.3751 26.8671C31.9001 26.8396 31.607 26.4969 31.607 26.0532ZM24.9626 24.7374C24.2223 24.7374 23.6917 25.2637 23.6917 26.0501C23.6917 26.8396 24.2223 27.3629 24.9904 27.3629C25.3605 27.3629 25.7307 27.2588 26.0237 27.0201L25.7585 26.6254C25.5456 26.7845 25.2803 26.8886 25.0181 26.8886C24.6727 26.8886 24.3303 26.7294 24.2501 26.2857H26.1286C26.1286 26.2062 26.1286 26.1542 26.1286 26.0746C26.1533 25.2637 25.6752 24.7374 24.9626 24.7374ZM24.9626 25.2117C25.3081 25.2117 25.5456 25.4228 25.5981 25.8145H24.2747C24.3272 25.4749 24.5647 25.2117 24.9626 25.2117ZM38.7573 26.0532V23.7949H38.2021V25.1077C38.017 24.872 37.7517 24.7405 37.4062 24.7405C36.6906 24.7405 36.1353 25.2913 36.1353 26.0532C36.1353 26.8151 36.6906 27.3659 37.4062 27.3659C37.7764 27.3659 38.0417 27.2343 38.2021 26.9987V27.3139H38.7573V26.0532ZM36.7183 26.0532C36.7183 25.6064 37.0083 25.2392 37.4864 25.2392C37.9368 25.2392 38.2545 25.582 38.2545 26.0532C38.2545 26.4999 37.9368 26.8671 37.4864 26.8671C37.0083 26.8396 36.7183 26.4969 36.7183 26.0532ZM18.13 26.0532V24.7925H17.5748V25.1077C17.3897 24.872 17.1244 24.7405 16.779 24.7405C16.0633 24.7405 15.5081 25.2913 15.5081 26.0532C15.5081 26.8151 16.0633 27.3659 16.779 27.3659C17.1491 27.3659 17.4144 27.2343 17.5748 26.9987V27.3139H18.13V26.0532ZM16.0664 26.0532C16.0664 25.6064 16.3564 25.2392 16.8345 25.2392C17.2848 25.2392 17.6026 25.582 17.6026 26.0532C17.6026 26.4999 17.2848 26.8671 16.8345 26.8671C16.3564 26.8396 16.0664 26.4969 16.0664 26.0532Z" fill="#222222"/>
<g id="Group">
<path id="rect19" d="M28.9914 5.64648H20.6504V20.5119H28.9914V5.64648Z" fill="#FF5F00"/>
<path id="XMLID_330_" d="M21.2054 13.0784C21.2054 10.0582 22.6367 7.37765 24.8329 5.6457C23.2166 4.38498 21.1776 3.62305 18.9535 3.62305C13.6849 3.62305 9.42188 7.85194 9.42188 13.0784C9.42188 18.3048 13.6849 22.5337 18.9535 22.5337C21.1776 22.5337 23.2166 21.7718 24.8329 20.5111C22.6336 18.8036 21.2054 16.0986 21.2054 13.0784Z" fill="#EB001B"/>
<path id="path22" d="M40.2431 13.0784C40.2431 18.3048 35.9801 22.5337 30.7114 22.5337C28.4874 22.5337 26.4484 21.7718 24.832 20.5111C27.0561 18.7761 28.4596 16.0986 28.4596 13.0784C28.4596 10.0582 27.0283 7.37765 24.832 5.6457C26.4453 4.38498 28.4843 3.62305 30.7083 3.62305C35.9801 3.62305 40.2431 7.87948 40.2431 13.0784Z" fill="#F79E1B"/>
</g>
</g>
</g>
</svg>
