<svg width="50" height="31" viewBox="0 0 50 31" fill="none" xmlns="http://www.w3.org/2000/svg">
<g id="visa">
<rect id="Rectangle 53" x="-0.00195312" width="50.0003" height="31" rx="2.81271" fill="white"/>
<g id="visa_2">
<path id="polygon9" d="M21.5009 20.7279H18.416L20.3456 8.89258H23.4303L21.5009 20.7279Z" fill="#00579F"/>
<path id="path11" d="M32.6836 9.18356C32.0752 8.94409 31.11 8.67969 29.9167 8.67969C26.8702 8.67969 24.7249 10.2912 24.7118 12.5952C24.6865 14.2951 26.2477 15.2393 27.4154 15.8061C28.609 16.3852 29.0147 16.7633 29.0147 17.2795C29.0025 18.0724 28.0503 18.4379 27.1621 18.4379C25.9304 18.4379 25.2705 18.2495 24.2676 17.8083L23.8614 17.6192L23.4297 20.276C24.1532 20.603 25.4863 20.8932 26.8702 20.9059C30.1072 20.9059 32.2145 19.3193 32.2395 16.864C32.2518 15.5167 31.4274 14.4844 29.65 13.6408C28.571 13.0993 27.9102 12.7341 27.9102 12.18C27.9229 11.6763 28.4691 11.1604 29.6871 11.1604C30.69 11.1351 31.4269 11.3743 31.9851 11.6136L32.2641 11.7392L32.6836 9.18356Z" fill="#00579F"/>
<path id="path13" d="M36.7827 16.535C37.0367 15.8551 38.0143 13.2236 38.0143 13.2236C38.0015 13.2489 38.2679 12.5312 38.4202 12.0905L38.6358 13.1103C38.6358 13.1103 39.22 15.9433 39.3468 16.535C38.8647 16.535 37.392 16.535 36.7827 16.535ZM40.5906 8.89258H38.2044C37.4686 8.89258 36.9095 9.10644 36.592 9.87456L32.0098 20.7277H35.2467C35.2467 20.7277 35.7796 19.2669 35.8941 18.9523C36.2492 18.9523 39.3981 18.9523 39.8549 18.9523C39.9435 19.3678 40.223 20.7277 40.223 20.7277H43.0794L40.5906 8.89258Z" fill="#00579F"/>
<path id="path15" d="M15.8391 8.89258L12.8179 16.9631L12.4878 15.3263C11.9292 13.4377 10.1775 11.3857 8.22266 10.3654L10.9899 20.7153H14.2522L19.1011 8.89258H15.8391Z" fill="#00579F"/>
<path id="path17" d="M10.0122 8.89258H5.04882L4.99805 9.13171C8.86977 10.1139 11.4339 12.4813 12.4874 15.3268L11.4085 9.88744C11.2308 9.13155 10.6849 8.91751 10.0122 8.89258Z" fill="#FAA61A"/>
</g>
</g>
</svg>
